G04 #@! TF.GenerationSoftware,KiCad,Pcbnew,5.1.5+dfsg1-2build2*
G04 #@! TF.CreationDate,2020-08-14T16:11:21+02:00*
G04 #@! TF.ProjectId,carrierboard_aisler,63617272-6965-4726-926f-6172645f6169,1*
G04 #@! TF.SameCoordinates,Original*
G04 #@! TF.FileFunction,Copper,L2,Bot*
G04 #@! TF.FilePolarity,Positive*
%FSLAX46Y46*%
G04 Gerber Fmt 4.6, Leading zero omitted, Abs format (unit mm)*
G04 Created by KiCad (PCBNEW 5.1.5+dfsg1-2build2) date 2020-08-14 16:11:21*
%MOMM*%
%LPD*%
G04 APERTURE LIST*
%ADD10O,1.700000X1.700000*%
%ADD11R,1.700000X1.700000*%
%ADD12O,2.000000X1.905000*%
%ADD13R,2.000000X1.905000*%
%ADD14C,2.600000*%
%ADD15R,2.600000X2.600000*%
%ADD16C,1.200000*%
%ADD17R,1.200000X1.200000*%
%ADD18C,0.800000*%
%ADD19C,0.254000*%
G04 APERTURE END LIST*
D10*
X150114000Y-94488000D03*
X150114000Y-97028000D03*
X150114000Y-99568000D03*
X150114000Y-102108000D03*
X150114000Y-104648000D03*
D11*
X150114000Y-107188000D03*
D10*
X96774000Y-94234000D03*
X96774000Y-96774000D03*
X96774000Y-99314000D03*
D11*
X96774000Y-101854000D03*
D10*
X96774000Y-114300000D03*
X96774000Y-111760000D03*
X96774000Y-109220000D03*
D11*
X96774000Y-106680000D03*
D12*
X135636000Y-97028000D03*
X135636000Y-99568000D03*
D13*
X135636000Y-102108000D03*
D14*
X141280000Y-109982000D03*
D15*
X144780000Y-109982000D03*
D16*
X143732000Y-101600000D03*
D17*
X141732000Y-101600000D03*
D16*
X135604000Y-108204000D03*
D17*
X133604000Y-108204000D03*
D16*
X143732000Y-96520000D03*
D17*
X141732000Y-96520000D03*
D18*
X126746000Y-111252000D03*
D19*
G36*
X151765000Y-116713000D02*
G01*
X95123000Y-116713000D01*
X95123000Y-114656890D01*
X95332524Y-114656890D01*
X95377175Y-114804099D01*
X95502359Y-115066920D01*
X95676412Y-115300269D01*
X95892645Y-115495178D01*
X96142748Y-115644157D01*
X96417109Y-115741481D01*
X96647000Y-115620814D01*
X96647000Y-114427000D01*
X96901000Y-114427000D01*
X96901000Y-115620814D01*
X97130891Y-115741481D01*
X97405252Y-115644157D01*
X97655355Y-115495178D01*
X97871588Y-115300269D01*
X98045641Y-115066920D01*
X98170825Y-114804099D01*
X98215476Y-114656890D01*
X98094155Y-114427000D01*
X96901000Y-114427000D01*
X96647000Y-114427000D01*
X95453845Y-114427000D01*
X95332524Y-114656890D01*
X95123000Y-114656890D01*
X95123000Y-105830000D01*
X95285928Y-105830000D01*
X95285928Y-107530000D01*
X95298188Y-107654482D01*
X95334498Y-107774180D01*
X95393463Y-107884494D01*
X95472815Y-107981185D01*
X95569506Y-108060537D01*
X95679820Y-108119502D01*
X95752380Y-108141513D01*
X95620525Y-108273368D01*
X95458010Y-108516589D01*
X95346068Y-108786842D01*
X95289000Y-109073740D01*
X95289000Y-109366260D01*
X95346068Y-109653158D01*
X95458010Y-109923411D01*
X95620525Y-110166632D01*
X95827368Y-110373475D01*
X96001760Y-110490000D01*
X95827368Y-110606525D01*
X95620525Y-110813368D01*
X95458010Y-111056589D01*
X95346068Y-111326842D01*
X95289000Y-111613740D01*
X95289000Y-111906260D01*
X95346068Y-112193158D01*
X95458010Y-112463411D01*
X95620525Y-112706632D01*
X95827368Y-112913475D01*
X96009534Y-113035195D01*
X95892645Y-113104822D01*
X95676412Y-113299731D01*
X95502359Y-113533080D01*
X95377175Y-113795901D01*
X95332524Y-113943110D01*
X95453845Y-114173000D01*
X96647000Y-114173000D01*
X96647000Y-114153000D01*
X96901000Y-114153000D01*
X96901000Y-114173000D01*
X98094155Y-114173000D01*
X98215476Y-113943110D01*
X98170825Y-113795901D01*
X98045641Y-113533080D01*
X97871588Y-113299731D01*
X97655355Y-113104822D01*
X97538466Y-113035195D01*
X97720632Y-112913475D01*
X97927475Y-112706632D01*
X98089990Y-112463411D01*
X98201932Y-112193158D01*
X98259000Y-111906260D01*
X98259000Y-111613740D01*
X98202804Y-111331224D01*
X140110381Y-111331224D01*
X140242317Y-111626312D01*
X140583045Y-111797159D01*
X140950557Y-111898250D01*
X141330729Y-111925701D01*
X141708951Y-111878457D01*
X142070690Y-111758333D01*
X142317683Y-111626312D01*
X142449619Y-111331224D01*
X141280000Y-110161605D01*
X140110381Y-111331224D01*
X98202804Y-111331224D01*
X98201932Y-111326842D01*
X98089990Y-111056589D01*
X97927475Y-110813368D01*
X97720632Y-110606525D01*
X97546240Y-110490000D01*
X97720632Y-110373475D01*
X97927475Y-110166632D01*
X98016946Y-110032729D01*
X139336299Y-110032729D01*
X139383543Y-110410951D01*
X139503667Y-110772690D01*
X139635688Y-111019683D01*
X139930776Y-111151619D01*
X141100395Y-109982000D01*
X141459605Y-109982000D01*
X142629224Y-111151619D01*
X142841928Y-111056517D01*
X142841928Y-111282000D01*
X142854188Y-111406482D01*
X142890498Y-111526180D01*
X142949463Y-111636494D01*
X143028815Y-111733185D01*
X143125506Y-111812537D01*
X143235820Y-111871502D01*
X143355518Y-111907812D01*
X143480000Y-111920072D01*
X146080000Y-111920072D01*
X146204482Y-111907812D01*
X146324180Y-111871502D01*
X146434494Y-111812537D01*
X146531185Y-111733185D01*
X146610537Y-111636494D01*
X146669502Y-111526180D01*
X146705812Y-111406482D01*
X146718072Y-111282000D01*
X146718072Y-108682000D01*
X146705812Y-108557518D01*
X146669502Y-108437820D01*
X146610537Y-108327506D01*
X146531185Y-108230815D01*
X146434494Y-108151463D01*
X146324180Y-108092498D01*
X146204482Y-108056188D01*
X146080000Y-108043928D01*
X143480000Y-108043928D01*
X143355518Y-108056188D01*
X143235820Y-108092498D01*
X143125506Y-108151463D01*
X143028815Y-108230815D01*
X142949463Y-108327506D01*
X142890498Y-108437820D01*
X142854188Y-108557518D01*
X142841928Y-108682000D01*
X142841928Y-108907483D01*
X142629224Y-108812381D01*
X141459605Y-109982000D01*
X141100395Y-109982000D01*
X139930776Y-108812381D01*
X139635688Y-108944317D01*
X139464841Y-109285045D01*
X139363750Y-109652557D01*
X139336299Y-110032729D01*
X98016946Y-110032729D01*
X98089990Y-109923411D01*
X98201932Y-109653158D01*
X98259000Y-109366260D01*
X98259000Y-109073740D01*
X98201932Y-108786842D01*
X98089990Y-108516589D01*
X97927475Y-108273368D01*
X97795620Y-108141513D01*
X97868180Y-108119502D01*
X97978494Y-108060537D01*
X98075185Y-107981185D01*
X98154537Y-107884494D01*
X98213502Y-107774180D01*
X98249812Y-107654482D01*
X98254783Y-107604000D01*
X132365928Y-107604000D01*
X132365928Y-108804000D01*
X132378188Y-108928482D01*
X132414498Y-109048180D01*
X132473463Y-109158494D01*
X132552815Y-109255185D01*
X132649506Y-109334537D01*
X132759820Y-109393502D01*
X132879518Y-109429812D01*
X133004000Y-109442072D01*
X134204000Y-109442072D01*
X134328482Y-109429812D01*
X134448180Y-109393502D01*
X134558494Y-109334537D01*
X134655185Y-109255185D01*
X134734537Y-109158494D01*
X134758858Y-109112994D01*
X134816736Y-109170872D01*
X134933842Y-109053766D01*
X134981148Y-109277348D01*
X135202516Y-109378237D01*
X135439313Y-109434000D01*
X135682438Y-109442495D01*
X135922549Y-109403395D01*
X136150418Y-109318202D01*
X136226852Y-109277348D01*
X136274159Y-109053764D01*
X135604000Y-108383605D01*
X135589858Y-108397748D01*
X135410253Y-108218143D01*
X135424395Y-108204000D01*
X135783605Y-108204000D01*
X136453764Y-108874159D01*
X136677348Y-108826852D01*
X136765798Y-108632776D01*
X140110381Y-108632776D01*
X141280000Y-109802395D01*
X142449619Y-108632776D01*
X142317683Y-108337688D01*
X141976955Y-108166841D01*
X141609443Y-108065750D01*
X141229271Y-108038299D01*
X140851049Y-108085543D01*
X140489310Y-108205667D01*
X140242317Y-108337688D01*
X140110381Y-108632776D01*
X136765798Y-108632776D01*
X136778237Y-108605484D01*
X136834000Y-108368687D01*
X136842495Y-108125562D01*
X136828237Y-108038000D01*
X148625928Y-108038000D01*
X148638188Y-108162482D01*
X148674498Y-108282180D01*
X148733463Y-108392494D01*
X148812815Y-108489185D01*
X148909506Y-108568537D01*
X149019820Y-108627502D01*
X149139518Y-108663812D01*
X149264000Y-108676072D01*
X149828250Y-108673000D01*
X149987000Y-108514250D01*
X149987000Y-107315000D01*
X150241000Y-107315000D01*
X150241000Y-108514250D01*
X150399750Y-108673000D01*
X150964000Y-108676072D01*
X151088482Y-108663812D01*
X151208180Y-108627502D01*
X151318494Y-108568537D01*
X151415185Y-108489185D01*
X151494537Y-108392494D01*
X151553502Y-108282180D01*
X151589812Y-108162482D01*
X151602072Y-108038000D01*
X151599000Y-107473750D01*
X151440250Y-107315000D01*
X150241000Y-107315000D01*
X149987000Y-107315000D01*
X148787750Y-107315000D01*
X148629000Y-107473750D01*
X148625928Y-108038000D01*
X136828237Y-108038000D01*
X136803395Y-107885451D01*
X136718202Y-107657582D01*
X136677348Y-107581148D01*
X136453764Y-107533841D01*
X135783605Y-108204000D01*
X135424395Y-108204000D01*
X135410253Y-108189858D01*
X135589858Y-108010253D01*
X135604000Y-108024395D01*
X136274159Y-107354236D01*
X136226852Y-107130652D01*
X136005484Y-107029763D01*
X135768687Y-106974000D01*
X135525562Y-106965505D01*
X135285451Y-107004605D01*
X135057582Y-107089798D01*
X134981148Y-107130652D01*
X134933842Y-107354234D01*
X134816736Y-107237128D01*
X134758858Y-107295006D01*
X134734537Y-107249506D01*
X134655185Y-107152815D01*
X134558494Y-107073463D01*
X134448180Y-107014498D01*
X134328482Y-106978188D01*
X134204000Y-106965928D01*
X133004000Y-106965928D01*
X132879518Y-106978188D01*
X132759820Y-107014498D01*
X132649506Y-107073463D01*
X132552815Y-107152815D01*
X132473463Y-107249506D01*
X132414498Y-107359820D01*
X132378188Y-107479518D01*
X132365928Y-107604000D01*
X98254783Y-107604000D01*
X98262072Y-107530000D01*
X98262072Y-106338000D01*
X148625928Y-106338000D01*
X148629000Y-106902250D01*
X148787750Y-107061000D01*
X149987000Y-107061000D01*
X149987000Y-107041000D01*
X150241000Y-107041000D01*
X150241000Y-107061000D01*
X151440250Y-107061000D01*
X151599000Y-106902250D01*
X151602072Y-106338000D01*
X151589812Y-106213518D01*
X151553502Y-106093820D01*
X151494537Y-105983506D01*
X151415185Y-105886815D01*
X151318494Y-105807463D01*
X151208180Y-105748498D01*
X151135620Y-105726487D01*
X151267475Y-105594632D01*
X151429990Y-105351411D01*
X151541932Y-105081158D01*
X151599000Y-104794260D01*
X151599000Y-104501740D01*
X151541932Y-104214842D01*
X151429990Y-103944589D01*
X151267475Y-103701368D01*
X151060632Y-103494525D01*
X150886240Y-103378000D01*
X151060632Y-103261475D01*
X151267475Y-103054632D01*
X151429990Y-102811411D01*
X151541932Y-102541158D01*
X151599000Y-102254260D01*
X151599000Y-101961740D01*
X151541932Y-101674842D01*
X151429990Y-101404589D01*
X151267475Y-101161368D01*
X151060632Y-100954525D01*
X150886240Y-100838000D01*
X151060632Y-100721475D01*
X151267475Y-100514632D01*
X151429990Y-100271411D01*
X151541932Y-100001158D01*
X151599000Y-99714260D01*
X151599000Y-99421740D01*
X151541932Y-99134842D01*
X151429990Y-98864589D01*
X151267475Y-98621368D01*
X151060632Y-98414525D01*
X150886240Y-98298000D01*
X151060632Y-98181475D01*
X151267475Y-97974632D01*
X151429990Y-97731411D01*
X151541932Y-97461158D01*
X151599000Y-97174260D01*
X151599000Y-96881740D01*
X151541932Y-96594842D01*
X151429990Y-96324589D01*
X151267475Y-96081368D01*
X151060632Y-95874525D01*
X150886240Y-95758000D01*
X151060632Y-95641475D01*
X151267475Y-95434632D01*
X151429990Y-95191411D01*
X151541932Y-94921158D01*
X151599000Y-94634260D01*
X151599000Y-94341740D01*
X151541932Y-94054842D01*
X151429990Y-93784589D01*
X151267475Y-93541368D01*
X151060632Y-93334525D01*
X150817411Y-93172010D01*
X150547158Y-93060068D01*
X150260260Y-93003000D01*
X149967740Y-93003000D01*
X149680842Y-93060068D01*
X149410589Y-93172010D01*
X149167368Y-93334525D01*
X148960525Y-93541368D01*
X148798010Y-93784589D01*
X148686068Y-94054842D01*
X148629000Y-94341740D01*
X148629000Y-94634260D01*
X148686068Y-94921158D01*
X148798010Y-95191411D01*
X148960525Y-95434632D01*
X149167368Y-95641475D01*
X149341760Y-95758000D01*
X149167368Y-95874525D01*
X148960525Y-96081368D01*
X148798010Y-96324589D01*
X148686068Y-96594842D01*
X148629000Y-96881740D01*
X148629000Y-97174260D01*
X148686068Y-97461158D01*
X148798010Y-97731411D01*
X148960525Y-97974632D01*
X149167368Y-98181475D01*
X149341760Y-98298000D01*
X149167368Y-98414525D01*
X148960525Y-98621368D01*
X148798010Y-98864589D01*
X148686068Y-99134842D01*
X148629000Y-99421740D01*
X148629000Y-99714260D01*
X148686068Y-100001158D01*
X148798010Y-100271411D01*
X148960525Y-100514632D01*
X149167368Y-100721475D01*
X149341760Y-100838000D01*
X149167368Y-100954525D01*
X148960525Y-101161368D01*
X148798010Y-101404589D01*
X148686068Y-101674842D01*
X148629000Y-101961740D01*
X148629000Y-102254260D01*
X148686068Y-102541158D01*
X148798010Y-102811411D01*
X148960525Y-103054632D01*
X149167368Y-103261475D01*
X149341760Y-103378000D01*
X149167368Y-103494525D01*
X148960525Y-103701368D01*
X148798010Y-103944589D01*
X148686068Y-104214842D01*
X148629000Y-104501740D01*
X148629000Y-104794260D01*
X148686068Y-105081158D01*
X148798010Y-105351411D01*
X148960525Y-105594632D01*
X149092380Y-105726487D01*
X149019820Y-105748498D01*
X148909506Y-105807463D01*
X148812815Y-105886815D01*
X148733463Y-105983506D01*
X148674498Y-106093820D01*
X148638188Y-106213518D01*
X148625928Y-106338000D01*
X98262072Y-106338000D01*
X98262072Y-105830000D01*
X98249812Y-105705518D01*
X98213502Y-105585820D01*
X98154537Y-105475506D01*
X98075185Y-105378815D01*
X97978494Y-105299463D01*
X97868180Y-105240498D01*
X97748482Y-105204188D01*
X97624000Y-105191928D01*
X95924000Y-105191928D01*
X95799518Y-105204188D01*
X95679820Y-105240498D01*
X95569506Y-105299463D01*
X95472815Y-105378815D01*
X95393463Y-105475506D01*
X95334498Y-105585820D01*
X95298188Y-105705518D01*
X95285928Y-105830000D01*
X95123000Y-105830000D01*
X95123000Y-102704000D01*
X95285928Y-102704000D01*
X95298188Y-102828482D01*
X95334498Y-102948180D01*
X95393463Y-103058494D01*
X95472815Y-103155185D01*
X95569506Y-103234537D01*
X95679820Y-103293502D01*
X95799518Y-103329812D01*
X95924000Y-103342072D01*
X96488250Y-103339000D01*
X96647000Y-103180250D01*
X96647000Y-101981000D01*
X96901000Y-101981000D01*
X96901000Y-103180250D01*
X97059750Y-103339000D01*
X97624000Y-103342072D01*
X97748482Y-103329812D01*
X97868180Y-103293502D01*
X97978494Y-103234537D01*
X98075185Y-103155185D01*
X98152890Y-103060500D01*
X133997928Y-103060500D01*
X134010188Y-103184982D01*
X134046498Y-103304680D01*
X134105463Y-103414994D01*
X134184815Y-103511685D01*
X134281506Y-103591037D01*
X134391820Y-103650002D01*
X134511518Y-103686312D01*
X134636000Y-103698572D01*
X135350250Y-103695500D01*
X135509000Y-103536750D01*
X135509000Y-102235000D01*
X135763000Y-102235000D01*
X135763000Y-103536750D01*
X135921750Y-103695500D01*
X136636000Y-103698572D01*
X136760482Y-103686312D01*
X136880180Y-103650002D01*
X136990494Y-103591037D01*
X137087185Y-103511685D01*
X137166537Y-103414994D01*
X137225502Y-103304680D01*
X137261812Y-103184982D01*
X137274072Y-103060500D01*
X137271000Y-102393750D01*
X137112250Y-102235000D01*
X135763000Y-102235000D01*
X135509000Y-102235000D01*
X134159750Y-102235000D01*
X134001000Y-102393750D01*
X133997928Y-103060500D01*
X98152890Y-103060500D01*
X98154537Y-103058494D01*
X98213502Y-102948180D01*
X98249812Y-102828482D01*
X98262072Y-102704000D01*
X98259000Y-102139750D01*
X98100250Y-101981000D01*
X96901000Y-101981000D01*
X96647000Y-101981000D01*
X95447750Y-101981000D01*
X95289000Y-102139750D01*
X95285928Y-102704000D01*
X95123000Y-102704000D01*
X95123000Y-101004000D01*
X95285928Y-101004000D01*
X95289000Y-101568250D01*
X95447750Y-101727000D01*
X96647000Y-101727000D01*
X96647000Y-101707000D01*
X96901000Y-101707000D01*
X96901000Y-101727000D01*
X98100250Y-101727000D01*
X98259000Y-101568250D01*
X98262072Y-101004000D01*
X98249812Y-100879518D01*
X98213502Y-100759820D01*
X98154537Y-100649506D01*
X98075185Y-100552815D01*
X97978494Y-100473463D01*
X97868180Y-100414498D01*
X97795620Y-100392487D01*
X97927475Y-100260632D01*
X98089990Y-100017411D01*
X98201932Y-99747158D01*
X98259000Y-99460260D01*
X98259000Y-99167740D01*
X98201932Y-98880842D01*
X98089990Y-98610589D01*
X97927475Y-98367368D01*
X97720632Y-98160525D01*
X97546240Y-98044000D01*
X97720632Y-97927475D01*
X97927475Y-97720632D01*
X98089990Y-97477411D01*
X98201932Y-97207158D01*
X98237569Y-97028000D01*
X133993319Y-97028000D01*
X134023970Y-97339204D01*
X134114745Y-97638449D01*
X134262155Y-97914235D01*
X134460537Y-98155963D01*
X134633609Y-98298000D01*
X134460537Y-98440037D01*
X134262155Y-98681765D01*
X134114745Y-98957551D01*
X134023970Y-99256796D01*
X133993319Y-99568000D01*
X134023970Y-99879204D01*
X134114745Y-100178449D01*
X134262155Y-100454235D01*
X134365446Y-100580095D01*
X134281506Y-100624963D01*
X134184815Y-100704315D01*
X134105463Y-100801006D01*
X134046498Y-100911320D01*
X134010188Y-101031018D01*
X133997928Y-101155500D01*
X134001000Y-101822250D01*
X134159750Y-101981000D01*
X135509000Y-101981000D01*
X135509000Y-101961000D01*
X135763000Y-101961000D01*
X135763000Y-101981000D01*
X137112250Y-101981000D01*
X137271000Y-101822250D01*
X137274072Y-101155500D01*
X137261812Y-101031018D01*
X137252403Y-101000000D01*
X140493928Y-101000000D01*
X140493928Y-102200000D01*
X140506188Y-102324482D01*
X140542498Y-102444180D01*
X140601463Y-102554494D01*
X140680815Y-102651185D01*
X140777506Y-102730537D01*
X140887820Y-102789502D01*
X141007518Y-102825812D01*
X141132000Y-102838072D01*
X142332000Y-102838072D01*
X142456482Y-102825812D01*
X142576180Y-102789502D01*
X142686494Y-102730537D01*
X142783185Y-102651185D01*
X142862537Y-102554494D01*
X142886858Y-102508994D01*
X142944736Y-102566872D01*
X143061842Y-102449766D01*
X143109148Y-102673348D01*
X143330516Y-102774237D01*
X143567313Y-102830000D01*
X143810438Y-102838495D01*
X144050549Y-102799395D01*
X144278418Y-102714202D01*
X144354852Y-102673348D01*
X144402159Y-102449764D01*
X143732000Y-101779605D01*
X143717858Y-101793748D01*
X143538253Y-101614143D01*
X143552395Y-101600000D01*
X143911605Y-101600000D01*
X144581764Y-102270159D01*
X144805348Y-102222852D01*
X144906237Y-102001484D01*
X144962000Y-101764687D01*
X144970495Y-101521562D01*
X144931395Y-101281451D01*
X144846202Y-101053582D01*
X144805348Y-100977148D01*
X144581764Y-100929841D01*
X143911605Y-101600000D01*
X143552395Y-101600000D01*
X143538253Y-101585858D01*
X143717858Y-101406253D01*
X143732000Y-101420395D01*
X144402159Y-100750236D01*
X144354852Y-100526652D01*
X144133484Y-100425763D01*
X143896687Y-100370000D01*
X143653562Y-100361505D01*
X143413451Y-100400605D01*
X143185582Y-100485798D01*
X143109148Y-100526652D01*
X143061842Y-100750234D01*
X142944736Y-100633128D01*
X142886858Y-100691006D01*
X142862537Y-100645506D01*
X142783185Y-100548815D01*
X142686494Y-100469463D01*
X142576180Y-100410498D01*
X142456482Y-100374188D01*
X142332000Y-100361928D01*
X141132000Y-100361928D01*
X141007518Y-100374188D01*
X140887820Y-100410498D01*
X140777506Y-100469463D01*
X140680815Y-100548815D01*
X140601463Y-100645506D01*
X140542498Y-100755820D01*
X140506188Y-100875518D01*
X140493928Y-101000000D01*
X137252403Y-101000000D01*
X137225502Y-100911320D01*
X137166537Y-100801006D01*
X137087185Y-100704315D01*
X136990494Y-100624963D01*
X136906554Y-100580095D01*
X137009845Y-100454235D01*
X137157255Y-100178449D01*
X137248030Y-99879204D01*
X137278681Y-99568000D01*
X137248030Y-99256796D01*
X137157255Y-98957551D01*
X137009845Y-98681765D01*
X136811463Y-98440037D01*
X136638391Y-98298000D01*
X136811463Y-98155963D01*
X137009845Y-97914235D01*
X137157255Y-97638449D01*
X137248030Y-97339204D01*
X137278681Y-97028000D01*
X137248030Y-96716796D01*
X137157255Y-96417551D01*
X137009845Y-96141765D01*
X136827847Y-95920000D01*
X140493928Y-95920000D01*
X140493928Y-97120000D01*
X140506188Y-97244482D01*
X140542498Y-97364180D01*
X140601463Y-97474494D01*
X140680815Y-97571185D01*
X140777506Y-97650537D01*
X140887820Y-97709502D01*
X141007518Y-97745812D01*
X141132000Y-97758072D01*
X142332000Y-97758072D01*
X142456482Y-97745812D01*
X142576180Y-97709502D01*
X142686494Y-97650537D01*
X142783185Y-97571185D01*
X142862537Y-97474494D01*
X142886858Y-97428994D01*
X142944736Y-97486872D01*
X143061842Y-97369766D01*
X143109148Y-97593348D01*
X143330516Y-97694237D01*
X143567313Y-97750000D01*
X143810438Y-97758495D01*
X144050549Y-97719395D01*
X144278418Y-97634202D01*
X144354852Y-97593348D01*
X144402159Y-97369764D01*
X143732000Y-96699605D01*
X143717858Y-96713748D01*
X143538253Y-96534143D01*
X143552395Y-96520000D01*
X143911605Y-96520000D01*
X144581764Y-97190159D01*
X144805348Y-97142852D01*
X144906237Y-96921484D01*
X144962000Y-96684687D01*
X144970495Y-96441562D01*
X144931395Y-96201451D01*
X144846202Y-95973582D01*
X144805348Y-95897148D01*
X144581764Y-95849841D01*
X143911605Y-96520000D01*
X143552395Y-96520000D01*
X143538253Y-96505858D01*
X143717858Y-96326253D01*
X143732000Y-96340395D01*
X144402159Y-95670236D01*
X144354852Y-95446652D01*
X144133484Y-95345763D01*
X143896687Y-95290000D01*
X143653562Y-95281505D01*
X143413451Y-95320605D01*
X143185582Y-95405798D01*
X143109148Y-95446652D01*
X143061842Y-95670234D01*
X142944736Y-95553128D01*
X142886858Y-95611006D01*
X142862537Y-95565506D01*
X142783185Y-95468815D01*
X142686494Y-95389463D01*
X142576180Y-95330498D01*
X142456482Y-95294188D01*
X142332000Y-95281928D01*
X141132000Y-95281928D01*
X141007518Y-95294188D01*
X140887820Y-95330498D01*
X140777506Y-95389463D01*
X140680815Y-95468815D01*
X140601463Y-95565506D01*
X140542498Y-95675820D01*
X140506188Y-95795518D01*
X140493928Y-95920000D01*
X136827847Y-95920000D01*
X136811463Y-95900037D01*
X136569735Y-95701655D01*
X136293949Y-95554245D01*
X135994704Y-95463470D01*
X135761486Y-95440500D01*
X135510514Y-95440500D01*
X135277296Y-95463470D01*
X134978051Y-95554245D01*
X134702265Y-95701655D01*
X134460537Y-95900037D01*
X134262155Y-96141765D01*
X134114745Y-96417551D01*
X134023970Y-96716796D01*
X133993319Y-97028000D01*
X98237569Y-97028000D01*
X98259000Y-96920260D01*
X98259000Y-96627740D01*
X98201932Y-96340842D01*
X98089990Y-96070589D01*
X97927475Y-95827368D01*
X97720632Y-95620525D01*
X97538466Y-95498805D01*
X97655355Y-95429178D01*
X97871588Y-95234269D01*
X98045641Y-95000920D01*
X98170825Y-94738099D01*
X98215476Y-94590890D01*
X98094155Y-94361000D01*
X96901000Y-94361000D01*
X96901000Y-94381000D01*
X96647000Y-94381000D01*
X96647000Y-94361000D01*
X95453845Y-94361000D01*
X95332524Y-94590890D01*
X95377175Y-94738099D01*
X95502359Y-95000920D01*
X95676412Y-95234269D01*
X95892645Y-95429178D01*
X96009534Y-95498805D01*
X95827368Y-95620525D01*
X95620525Y-95827368D01*
X95458010Y-96070589D01*
X95346068Y-96340842D01*
X95289000Y-96627740D01*
X95289000Y-96920260D01*
X95346068Y-97207158D01*
X95458010Y-97477411D01*
X95620525Y-97720632D01*
X95827368Y-97927475D01*
X96001760Y-98044000D01*
X95827368Y-98160525D01*
X95620525Y-98367368D01*
X95458010Y-98610589D01*
X95346068Y-98880842D01*
X95289000Y-99167740D01*
X95289000Y-99460260D01*
X95346068Y-99747158D01*
X95458010Y-100017411D01*
X95620525Y-100260632D01*
X95752380Y-100392487D01*
X95679820Y-100414498D01*
X95569506Y-100473463D01*
X95472815Y-100552815D01*
X95393463Y-100649506D01*
X95334498Y-100759820D01*
X95298188Y-100879518D01*
X95285928Y-101004000D01*
X95123000Y-101004000D01*
X95123000Y-93877110D01*
X95332524Y-93877110D01*
X95453845Y-94107000D01*
X96647000Y-94107000D01*
X96647000Y-92913186D01*
X96901000Y-92913186D01*
X96901000Y-94107000D01*
X98094155Y-94107000D01*
X98215476Y-93877110D01*
X98170825Y-93729901D01*
X98045641Y-93467080D01*
X97871588Y-93233731D01*
X97655355Y-93038822D01*
X97405252Y-92889843D01*
X97130891Y-92792519D01*
X96901000Y-92913186D01*
X96647000Y-92913186D01*
X96417109Y-92792519D01*
X96142748Y-92889843D01*
X95892645Y-93038822D01*
X95676412Y-93233731D01*
X95502359Y-93467080D01*
X95377175Y-93729901D01*
X95332524Y-93877110D01*
X95123000Y-93877110D01*
X95123000Y-92583000D01*
X151765000Y-92583000D01*
X151765000Y-116713000D01*
G37*
X151765000Y-116713000D02*
X95123000Y-116713000D01*
X95123000Y-114656890D01*
X95332524Y-114656890D01*
X95377175Y-114804099D01*
X95502359Y-115066920D01*
X95676412Y-115300269D01*
X95892645Y-115495178D01*
X96142748Y-115644157D01*
X96417109Y-115741481D01*
X96647000Y-115620814D01*
X96647000Y-114427000D01*
X96901000Y-114427000D01*
X96901000Y-115620814D01*
X97130891Y-115741481D01*
X97405252Y-115644157D01*
X97655355Y-115495178D01*
X97871588Y-115300269D01*
X98045641Y-115066920D01*
X98170825Y-114804099D01*
X98215476Y-114656890D01*
X98094155Y-114427000D01*
X96901000Y-114427000D01*
X96647000Y-114427000D01*
X95453845Y-114427000D01*
X95332524Y-114656890D01*
X95123000Y-114656890D01*
X95123000Y-105830000D01*
X95285928Y-105830000D01*
X95285928Y-107530000D01*
X95298188Y-107654482D01*
X95334498Y-107774180D01*
X95393463Y-107884494D01*
X95472815Y-107981185D01*
X95569506Y-108060537D01*
X95679820Y-108119502D01*
X95752380Y-108141513D01*
X95620525Y-108273368D01*
X95458010Y-108516589D01*
X95346068Y-108786842D01*
X95289000Y-109073740D01*
X95289000Y-109366260D01*
X95346068Y-109653158D01*
X95458010Y-109923411D01*
X95620525Y-110166632D01*
X95827368Y-110373475D01*
X96001760Y-110490000D01*
X95827368Y-110606525D01*
X95620525Y-110813368D01*
X95458010Y-111056589D01*
X95346068Y-111326842D01*
X95289000Y-111613740D01*
X95289000Y-111906260D01*
X95346068Y-112193158D01*
X95458010Y-112463411D01*
X95620525Y-112706632D01*
X95827368Y-112913475D01*
X96009534Y-113035195D01*
X95892645Y-113104822D01*
X95676412Y-113299731D01*
X95502359Y-113533080D01*
X95377175Y-113795901D01*
X95332524Y-113943110D01*
X95453845Y-114173000D01*
X96647000Y-114173000D01*
X96647000Y-114153000D01*
X96901000Y-114153000D01*
X96901000Y-114173000D01*
X98094155Y-114173000D01*
X98215476Y-113943110D01*
X98170825Y-113795901D01*
X98045641Y-113533080D01*
X97871588Y-113299731D01*
X97655355Y-113104822D01*
X97538466Y-113035195D01*
X97720632Y-112913475D01*
X97927475Y-112706632D01*
X98089990Y-112463411D01*
X98201932Y-112193158D01*
X98259000Y-111906260D01*
X98259000Y-111613740D01*
X98202804Y-111331224D01*
X140110381Y-111331224D01*
X140242317Y-111626312D01*
X140583045Y-111797159D01*
X140950557Y-111898250D01*
X141330729Y-111925701D01*
X141708951Y-111878457D01*
X142070690Y-111758333D01*
X142317683Y-111626312D01*
X142449619Y-111331224D01*
X141280000Y-110161605D01*
X140110381Y-111331224D01*
X98202804Y-111331224D01*
X98201932Y-111326842D01*
X98089990Y-111056589D01*
X97927475Y-110813368D01*
X97720632Y-110606525D01*
X97546240Y-110490000D01*
X97720632Y-110373475D01*
X97927475Y-110166632D01*
X98016946Y-110032729D01*
X139336299Y-110032729D01*
X139383543Y-110410951D01*
X139503667Y-110772690D01*
X139635688Y-111019683D01*
X139930776Y-111151619D01*
X141100395Y-109982000D01*
X141459605Y-109982000D01*
X142629224Y-111151619D01*
X142841928Y-111056517D01*
X142841928Y-111282000D01*
X142854188Y-111406482D01*
X142890498Y-111526180D01*
X142949463Y-111636494D01*
X143028815Y-111733185D01*
X143125506Y-111812537D01*
X143235820Y-111871502D01*
X143355518Y-111907812D01*
X143480000Y-111920072D01*
X146080000Y-111920072D01*
X146204482Y-111907812D01*
X146324180Y-111871502D01*
X146434494Y-111812537D01*
X146531185Y-111733185D01*
X146610537Y-111636494D01*
X146669502Y-111526180D01*
X146705812Y-111406482D01*
X146718072Y-111282000D01*
X146718072Y-108682000D01*
X146705812Y-108557518D01*
X146669502Y-108437820D01*
X146610537Y-108327506D01*
X146531185Y-108230815D01*
X146434494Y-108151463D01*
X146324180Y-108092498D01*
X146204482Y-108056188D01*
X146080000Y-108043928D01*
X143480000Y-108043928D01*
X143355518Y-108056188D01*
X143235820Y-108092498D01*
X143125506Y-108151463D01*
X143028815Y-108230815D01*
X142949463Y-108327506D01*
X142890498Y-108437820D01*
X142854188Y-108557518D01*
X142841928Y-108682000D01*
X142841928Y-108907483D01*
X142629224Y-108812381D01*
X141459605Y-109982000D01*
X141100395Y-109982000D01*
X139930776Y-108812381D01*
X139635688Y-108944317D01*
X139464841Y-109285045D01*
X139363750Y-109652557D01*
X139336299Y-110032729D01*
X98016946Y-110032729D01*
X98089990Y-109923411D01*
X98201932Y-109653158D01*
X98259000Y-109366260D01*
X98259000Y-109073740D01*
X98201932Y-108786842D01*
X98089990Y-108516589D01*
X97927475Y-108273368D01*
X97795620Y-108141513D01*
X97868180Y-108119502D01*
X97978494Y-108060537D01*
X98075185Y-107981185D01*
X98154537Y-107884494D01*
X98213502Y-107774180D01*
X98249812Y-107654482D01*
X98254783Y-107604000D01*
X132365928Y-107604000D01*
X132365928Y-108804000D01*
X132378188Y-108928482D01*
X132414498Y-109048180D01*
X132473463Y-109158494D01*
X132552815Y-109255185D01*
X132649506Y-109334537D01*
X132759820Y-109393502D01*
X132879518Y-109429812D01*
X133004000Y-109442072D01*
X134204000Y-109442072D01*
X134328482Y-109429812D01*
X134448180Y-109393502D01*
X134558494Y-109334537D01*
X134655185Y-109255185D01*
X134734537Y-109158494D01*
X134758858Y-109112994D01*
X134816736Y-109170872D01*
X134933842Y-109053766D01*
X134981148Y-109277348D01*
X135202516Y-109378237D01*
X135439313Y-109434000D01*
X135682438Y-109442495D01*
X135922549Y-109403395D01*
X136150418Y-109318202D01*
X136226852Y-109277348D01*
X136274159Y-109053764D01*
X135604000Y-108383605D01*
X135589858Y-108397748D01*
X135410253Y-108218143D01*
X135424395Y-108204000D01*
X135783605Y-108204000D01*
X136453764Y-108874159D01*
X136677348Y-108826852D01*
X136765798Y-108632776D01*
X140110381Y-108632776D01*
X141280000Y-109802395D01*
X142449619Y-108632776D01*
X142317683Y-108337688D01*
X141976955Y-108166841D01*
X141609443Y-108065750D01*
X141229271Y-108038299D01*
X140851049Y-108085543D01*
X140489310Y-108205667D01*
X140242317Y-108337688D01*
X140110381Y-108632776D01*
X136765798Y-108632776D01*
X136778237Y-108605484D01*
X136834000Y-108368687D01*
X136842495Y-108125562D01*
X136828237Y-108038000D01*
X148625928Y-108038000D01*
X148638188Y-108162482D01*
X148674498Y-108282180D01*
X148733463Y-108392494D01*
X148812815Y-108489185D01*
X148909506Y-108568537D01*
X149019820Y-108627502D01*
X149139518Y-108663812D01*
X149264000Y-108676072D01*
X149828250Y-108673000D01*
X149987000Y-108514250D01*
X149987000Y-107315000D01*
X150241000Y-107315000D01*
X150241000Y-108514250D01*
X150399750Y-108673000D01*
X150964000Y-108676072D01*
X151088482Y-108663812D01*
X151208180Y-108627502D01*
X151318494Y-108568537D01*
X151415185Y-108489185D01*
X151494537Y-108392494D01*
X151553502Y-108282180D01*
X151589812Y-108162482D01*
X151602072Y-108038000D01*
X151599000Y-107473750D01*
X151440250Y-107315000D01*
X150241000Y-107315000D01*
X149987000Y-107315000D01*
X148787750Y-107315000D01*
X148629000Y-107473750D01*
X148625928Y-108038000D01*
X136828237Y-108038000D01*
X136803395Y-107885451D01*
X136718202Y-107657582D01*
X136677348Y-107581148D01*
X136453764Y-107533841D01*
X135783605Y-108204000D01*
X135424395Y-108204000D01*
X135410253Y-108189858D01*
X135589858Y-108010253D01*
X135604000Y-108024395D01*
X136274159Y-107354236D01*
X136226852Y-107130652D01*
X136005484Y-107029763D01*
X135768687Y-106974000D01*
X135525562Y-106965505D01*
X135285451Y-107004605D01*
X135057582Y-107089798D01*
X134981148Y-107130652D01*
X134933842Y-107354234D01*
X134816736Y-107237128D01*
X134758858Y-107295006D01*
X134734537Y-107249506D01*
X134655185Y-107152815D01*
X134558494Y-107073463D01*
X134448180Y-107014498D01*
X134328482Y-106978188D01*
X134204000Y-106965928D01*
X133004000Y-106965928D01*
X132879518Y-106978188D01*
X132759820Y-107014498D01*
X132649506Y-107073463D01*
X132552815Y-107152815D01*
X132473463Y-107249506D01*
X132414498Y-107359820D01*
X132378188Y-107479518D01*
X132365928Y-107604000D01*
X98254783Y-107604000D01*
X98262072Y-107530000D01*
X98262072Y-106338000D01*
X148625928Y-106338000D01*
X148629000Y-106902250D01*
X148787750Y-107061000D01*
X149987000Y-107061000D01*
X149987000Y-107041000D01*
X150241000Y-107041000D01*
X150241000Y-107061000D01*
X151440250Y-107061000D01*
X151599000Y-106902250D01*
X151602072Y-106338000D01*
X151589812Y-106213518D01*
X151553502Y-106093820D01*
X151494537Y-105983506D01*
X151415185Y-105886815D01*
X151318494Y-105807463D01*
X151208180Y-105748498D01*
X151135620Y-105726487D01*
X151267475Y-105594632D01*
X151429990Y-105351411D01*
X151541932Y-105081158D01*
X151599000Y-104794260D01*
X151599000Y-104501740D01*
X151541932Y-104214842D01*
X151429990Y-103944589D01*
X151267475Y-103701368D01*
X151060632Y-103494525D01*
X150886240Y-103378000D01*
X151060632Y-103261475D01*
X151267475Y-103054632D01*
X151429990Y-102811411D01*
X151541932Y-102541158D01*
X151599000Y-102254260D01*
X151599000Y-101961740D01*
X151541932Y-101674842D01*
X151429990Y-101404589D01*
X151267475Y-101161368D01*
X151060632Y-100954525D01*
X150886240Y-100838000D01*
X151060632Y-100721475D01*
X151267475Y-100514632D01*
X151429990Y-100271411D01*
X151541932Y-100001158D01*
X151599000Y-99714260D01*
X151599000Y-99421740D01*
X151541932Y-99134842D01*
X151429990Y-98864589D01*
X151267475Y-98621368D01*
X151060632Y-98414525D01*
X150886240Y-98298000D01*
X151060632Y-98181475D01*
X151267475Y-97974632D01*
X151429990Y-97731411D01*
X151541932Y-97461158D01*
X151599000Y-97174260D01*
X151599000Y-96881740D01*
X151541932Y-96594842D01*
X151429990Y-96324589D01*
X151267475Y-96081368D01*
X151060632Y-95874525D01*
X150886240Y-95758000D01*
X151060632Y-95641475D01*
X151267475Y-95434632D01*
X151429990Y-95191411D01*
X151541932Y-94921158D01*
X151599000Y-94634260D01*
X151599000Y-94341740D01*
X151541932Y-94054842D01*
X151429990Y-93784589D01*
X151267475Y-93541368D01*
X151060632Y-93334525D01*
X150817411Y-93172010D01*
X150547158Y-93060068D01*
X150260260Y-93003000D01*
X149967740Y-93003000D01*
X149680842Y-93060068D01*
X149410589Y-93172010D01*
X149167368Y-93334525D01*
X148960525Y-93541368D01*
X148798010Y-93784589D01*
X148686068Y-94054842D01*
X148629000Y-94341740D01*
X148629000Y-94634260D01*
X148686068Y-94921158D01*
X148798010Y-95191411D01*
X148960525Y-95434632D01*
X149167368Y-95641475D01*
X149341760Y-95758000D01*
X149167368Y-95874525D01*
X148960525Y-96081368D01*
X148798010Y-96324589D01*
X148686068Y-96594842D01*
X148629000Y-96881740D01*
X148629000Y-97174260D01*
X148686068Y-97461158D01*
X148798010Y-97731411D01*
X148960525Y-97974632D01*
X149167368Y-98181475D01*
X149341760Y-98298000D01*
X149167368Y-98414525D01*
X148960525Y-98621368D01*
X148798010Y-98864589D01*
X148686068Y-99134842D01*
X148629000Y-99421740D01*
X148629000Y-99714260D01*
X148686068Y-100001158D01*
X148798010Y-100271411D01*
X148960525Y-100514632D01*
X149167368Y-100721475D01*
X149341760Y-100838000D01*
X149167368Y-100954525D01*
X148960525Y-101161368D01*
X148798010Y-101404589D01*
X148686068Y-101674842D01*
X148629000Y-101961740D01*
X148629000Y-102254260D01*
X148686068Y-102541158D01*
X148798010Y-102811411D01*
X148960525Y-103054632D01*
X149167368Y-103261475D01*
X149341760Y-103378000D01*
X149167368Y-103494525D01*
X148960525Y-103701368D01*
X148798010Y-103944589D01*
X148686068Y-104214842D01*
X148629000Y-104501740D01*
X148629000Y-104794260D01*
X148686068Y-105081158D01*
X148798010Y-105351411D01*
X148960525Y-105594632D01*
X149092380Y-105726487D01*
X149019820Y-105748498D01*
X148909506Y-105807463D01*
X148812815Y-105886815D01*
X148733463Y-105983506D01*
X148674498Y-106093820D01*
X148638188Y-106213518D01*
X148625928Y-106338000D01*
X98262072Y-106338000D01*
X98262072Y-105830000D01*
X98249812Y-105705518D01*
X98213502Y-105585820D01*
X98154537Y-105475506D01*
X98075185Y-105378815D01*
X97978494Y-105299463D01*
X97868180Y-105240498D01*
X97748482Y-105204188D01*
X97624000Y-105191928D01*
X95924000Y-105191928D01*
X95799518Y-105204188D01*
X95679820Y-105240498D01*
X95569506Y-105299463D01*
X95472815Y-105378815D01*
X95393463Y-105475506D01*
X95334498Y-105585820D01*
X95298188Y-105705518D01*
X95285928Y-105830000D01*
X95123000Y-105830000D01*
X95123000Y-102704000D01*
X95285928Y-102704000D01*
X95298188Y-102828482D01*
X95334498Y-102948180D01*
X95393463Y-103058494D01*
X95472815Y-103155185D01*
X95569506Y-103234537D01*
X95679820Y-103293502D01*
X95799518Y-103329812D01*
X95924000Y-103342072D01*
X96488250Y-103339000D01*
X96647000Y-103180250D01*
X96647000Y-101981000D01*
X96901000Y-101981000D01*
X96901000Y-103180250D01*
X97059750Y-103339000D01*
X97624000Y-103342072D01*
X97748482Y-103329812D01*
X97868180Y-103293502D01*
X97978494Y-103234537D01*
X98075185Y-103155185D01*
X98152890Y-103060500D01*
X133997928Y-103060500D01*
X134010188Y-103184982D01*
X134046498Y-103304680D01*
X134105463Y-103414994D01*
X134184815Y-103511685D01*
X134281506Y-103591037D01*
X134391820Y-103650002D01*
X134511518Y-103686312D01*
X134636000Y-103698572D01*
X135350250Y-103695500D01*
X135509000Y-103536750D01*
X135509000Y-102235000D01*
X135763000Y-102235000D01*
X135763000Y-103536750D01*
X135921750Y-103695500D01*
X136636000Y-103698572D01*
X136760482Y-103686312D01*
X136880180Y-103650002D01*
X136990494Y-103591037D01*
X137087185Y-103511685D01*
X137166537Y-103414994D01*
X137225502Y-103304680D01*
X137261812Y-103184982D01*
X137274072Y-103060500D01*
X137271000Y-102393750D01*
X137112250Y-102235000D01*
X135763000Y-102235000D01*
X135509000Y-102235000D01*
X134159750Y-102235000D01*
X134001000Y-102393750D01*
X133997928Y-103060500D01*
X98152890Y-103060500D01*
X98154537Y-103058494D01*
X98213502Y-102948180D01*
X98249812Y-102828482D01*
X98262072Y-102704000D01*
X98259000Y-102139750D01*
X98100250Y-101981000D01*
X96901000Y-101981000D01*
X96647000Y-101981000D01*
X95447750Y-101981000D01*
X95289000Y-102139750D01*
X95285928Y-102704000D01*
X95123000Y-102704000D01*
X95123000Y-101004000D01*
X95285928Y-101004000D01*
X95289000Y-101568250D01*
X95447750Y-101727000D01*
X96647000Y-101727000D01*
X96647000Y-101707000D01*
X96901000Y-101707000D01*
X96901000Y-101727000D01*
X98100250Y-101727000D01*
X98259000Y-101568250D01*
X98262072Y-101004000D01*
X98249812Y-100879518D01*
X98213502Y-100759820D01*
X98154537Y-100649506D01*
X98075185Y-100552815D01*
X97978494Y-100473463D01*
X97868180Y-100414498D01*
X97795620Y-100392487D01*
X97927475Y-100260632D01*
X98089990Y-100017411D01*
X98201932Y-99747158D01*
X98259000Y-99460260D01*
X98259000Y-99167740D01*
X98201932Y-98880842D01*
X98089990Y-98610589D01*
X97927475Y-98367368D01*
X97720632Y-98160525D01*
X97546240Y-98044000D01*
X97720632Y-97927475D01*
X97927475Y-97720632D01*
X98089990Y-97477411D01*
X98201932Y-97207158D01*
X98237569Y-97028000D01*
X133993319Y-97028000D01*
X134023970Y-97339204D01*
X134114745Y-97638449D01*
X134262155Y-97914235D01*
X134460537Y-98155963D01*
X134633609Y-98298000D01*
X134460537Y-98440037D01*
X134262155Y-98681765D01*
X134114745Y-98957551D01*
X134023970Y-99256796D01*
X133993319Y-99568000D01*
X134023970Y-99879204D01*
X134114745Y-100178449D01*
X134262155Y-100454235D01*
X134365446Y-100580095D01*
X134281506Y-100624963D01*
X134184815Y-100704315D01*
X134105463Y-100801006D01*
X134046498Y-100911320D01*
X134010188Y-101031018D01*
X133997928Y-101155500D01*
X134001000Y-101822250D01*
X134159750Y-101981000D01*
X135509000Y-101981000D01*
X135509000Y-101961000D01*
X135763000Y-101961000D01*
X135763000Y-101981000D01*
X137112250Y-101981000D01*
X137271000Y-101822250D01*
X137274072Y-101155500D01*
X137261812Y-101031018D01*
X137252403Y-101000000D01*
X140493928Y-101000000D01*
X140493928Y-102200000D01*
X140506188Y-102324482D01*
X140542498Y-102444180D01*
X140601463Y-102554494D01*
X140680815Y-102651185D01*
X140777506Y-102730537D01*
X140887820Y-102789502D01*
X141007518Y-102825812D01*
X141132000Y-102838072D01*
X142332000Y-102838072D01*
X142456482Y-102825812D01*
X142576180Y-102789502D01*
X142686494Y-102730537D01*
X142783185Y-102651185D01*
X142862537Y-102554494D01*
X142886858Y-102508994D01*
X142944736Y-102566872D01*
X143061842Y-102449766D01*
X143109148Y-102673348D01*
X143330516Y-102774237D01*
X143567313Y-102830000D01*
X143810438Y-102838495D01*
X144050549Y-102799395D01*
X144278418Y-102714202D01*
X144354852Y-102673348D01*
X144402159Y-102449764D01*
X143732000Y-101779605D01*
X143717858Y-101793748D01*
X143538253Y-101614143D01*
X143552395Y-101600000D01*
X143911605Y-101600000D01*
X144581764Y-102270159D01*
X144805348Y-102222852D01*
X144906237Y-102001484D01*
X144962000Y-101764687D01*
X144970495Y-101521562D01*
X144931395Y-101281451D01*
X144846202Y-101053582D01*
X144805348Y-100977148D01*
X144581764Y-100929841D01*
X143911605Y-101600000D01*
X143552395Y-101600000D01*
X143538253Y-101585858D01*
X143717858Y-101406253D01*
X143732000Y-101420395D01*
X144402159Y-100750236D01*
X144354852Y-100526652D01*
X144133484Y-100425763D01*
X143896687Y-100370000D01*
X143653562Y-100361505D01*
X143413451Y-100400605D01*
X143185582Y-100485798D01*
X143109148Y-100526652D01*
X143061842Y-100750234D01*
X142944736Y-100633128D01*
X142886858Y-100691006D01*
X142862537Y-100645506D01*
X142783185Y-100548815D01*
X142686494Y-100469463D01*
X142576180Y-100410498D01*
X142456482Y-100374188D01*
X142332000Y-100361928D01*
X141132000Y-100361928D01*
X141007518Y-100374188D01*
X140887820Y-100410498D01*
X140777506Y-100469463D01*
X140680815Y-100548815D01*
X140601463Y-100645506D01*
X140542498Y-100755820D01*
X140506188Y-100875518D01*
X140493928Y-101000000D01*
X137252403Y-101000000D01*
X137225502Y-100911320D01*
X137166537Y-100801006D01*
X137087185Y-100704315D01*
X136990494Y-100624963D01*
X136906554Y-100580095D01*
X137009845Y-100454235D01*
X137157255Y-100178449D01*
X137248030Y-99879204D01*
X137278681Y-99568000D01*
X137248030Y-99256796D01*
X137157255Y-98957551D01*
X137009845Y-98681765D01*
X136811463Y-98440037D01*
X136638391Y-98298000D01*
X136811463Y-98155963D01*
X137009845Y-97914235D01*
X137157255Y-97638449D01*
X137248030Y-97339204D01*
X137278681Y-97028000D01*
X137248030Y-96716796D01*
X137157255Y-96417551D01*
X137009845Y-96141765D01*
X136827847Y-95920000D01*
X140493928Y-95920000D01*
X140493928Y-97120000D01*
X140506188Y-97244482D01*
X140542498Y-97364180D01*
X140601463Y-97474494D01*
X140680815Y-97571185D01*
X140777506Y-97650537D01*
X140887820Y-97709502D01*
X141007518Y-97745812D01*
X141132000Y-97758072D01*
X142332000Y-97758072D01*
X142456482Y-97745812D01*
X142576180Y-97709502D01*
X142686494Y-97650537D01*
X142783185Y-97571185D01*
X142862537Y-97474494D01*
X142886858Y-97428994D01*
X142944736Y-97486872D01*
X143061842Y-97369766D01*
X143109148Y-97593348D01*
X143330516Y-97694237D01*
X143567313Y-97750000D01*
X143810438Y-97758495D01*
X144050549Y-97719395D01*
X144278418Y-97634202D01*
X144354852Y-97593348D01*
X144402159Y-97369764D01*
X143732000Y-96699605D01*
X143717858Y-96713748D01*
X143538253Y-96534143D01*
X143552395Y-96520000D01*
X143911605Y-96520000D01*
X144581764Y-97190159D01*
X144805348Y-97142852D01*
X144906237Y-96921484D01*
X144962000Y-96684687D01*
X144970495Y-96441562D01*
X144931395Y-96201451D01*
X144846202Y-95973582D01*
X144805348Y-95897148D01*
X144581764Y-95849841D01*
X143911605Y-96520000D01*
X143552395Y-96520000D01*
X143538253Y-96505858D01*
X143717858Y-96326253D01*
X143732000Y-96340395D01*
X144402159Y-95670236D01*
X144354852Y-95446652D01*
X144133484Y-95345763D01*
X143896687Y-95290000D01*
X143653562Y-95281505D01*
X143413451Y-95320605D01*
X143185582Y-95405798D01*
X143109148Y-95446652D01*
X143061842Y-95670234D01*
X142944736Y-95553128D01*
X142886858Y-95611006D01*
X142862537Y-95565506D01*
X142783185Y-95468815D01*
X142686494Y-95389463D01*
X142576180Y-95330498D01*
X142456482Y-95294188D01*
X142332000Y-95281928D01*
X141132000Y-95281928D01*
X141007518Y-95294188D01*
X140887820Y-95330498D01*
X140777506Y-95389463D01*
X140680815Y-95468815D01*
X140601463Y-95565506D01*
X140542498Y-95675820D01*
X140506188Y-95795518D01*
X140493928Y-95920000D01*
X136827847Y-95920000D01*
X136811463Y-95900037D01*
X136569735Y-95701655D01*
X136293949Y-95554245D01*
X135994704Y-95463470D01*
X135761486Y-95440500D01*
X135510514Y-95440500D01*
X135277296Y-95463470D01*
X134978051Y-95554245D01*
X134702265Y-95701655D01*
X134460537Y-95900037D01*
X134262155Y-96141765D01*
X134114745Y-96417551D01*
X134023970Y-96716796D01*
X133993319Y-97028000D01*
X98237569Y-97028000D01*
X98259000Y-96920260D01*
X98259000Y-96627740D01*
X98201932Y-96340842D01*
X98089990Y-96070589D01*
X97927475Y-95827368D01*
X97720632Y-95620525D01*
X97538466Y-95498805D01*
X97655355Y-95429178D01*
X97871588Y-95234269D01*
X98045641Y-95000920D01*
X98170825Y-94738099D01*
X98215476Y-94590890D01*
X98094155Y-94361000D01*
X96901000Y-94361000D01*
X96901000Y-94381000D01*
X96647000Y-94381000D01*
X96647000Y-94361000D01*
X95453845Y-94361000D01*
X95332524Y-94590890D01*
X95377175Y-94738099D01*
X95502359Y-95000920D01*
X95676412Y-95234269D01*
X95892645Y-95429178D01*
X96009534Y-95498805D01*
X95827368Y-95620525D01*
X95620525Y-95827368D01*
X95458010Y-96070589D01*
X95346068Y-96340842D01*
X95289000Y-96627740D01*
X95289000Y-96920260D01*
X95346068Y-97207158D01*
X95458010Y-97477411D01*
X95620525Y-97720632D01*
X95827368Y-97927475D01*
X96001760Y-98044000D01*
X95827368Y-98160525D01*
X95620525Y-98367368D01*
X95458010Y-98610589D01*
X95346068Y-98880842D01*
X95289000Y-99167740D01*
X95289000Y-99460260D01*
X95346068Y-99747158D01*
X95458010Y-100017411D01*
X95620525Y-100260632D01*
X95752380Y-100392487D01*
X95679820Y-100414498D01*
X95569506Y-100473463D01*
X95472815Y-100552815D01*
X95393463Y-100649506D01*
X95334498Y-100759820D01*
X95298188Y-100879518D01*
X95285928Y-101004000D01*
X95123000Y-101004000D01*
X95123000Y-93877110D01*
X95332524Y-93877110D01*
X95453845Y-94107000D01*
X96647000Y-94107000D01*
X96647000Y-92913186D01*
X96901000Y-92913186D01*
X96901000Y-94107000D01*
X98094155Y-94107000D01*
X98215476Y-93877110D01*
X98170825Y-93729901D01*
X98045641Y-93467080D01*
X97871588Y-93233731D01*
X97655355Y-93038822D01*
X97405252Y-92889843D01*
X97130891Y-92792519D01*
X96901000Y-92913186D01*
X96647000Y-92913186D01*
X96417109Y-92792519D01*
X96142748Y-92889843D01*
X95892645Y-93038822D01*
X95676412Y-93233731D01*
X95502359Y-93467080D01*
X95377175Y-93729901D01*
X95332524Y-93877110D01*
X95123000Y-93877110D01*
X95123000Y-92583000D01*
X151765000Y-92583000D01*
X151765000Y-116713000D01*
M02*
